<?xml version="1.0" encoding="UTF-8"?><!DOCTYPE svg PUBLIC "-//W3C//DTD SVG 1.1//EN" "http://www.w3.org/Graphics/SVG/1.1/DTD/svg11.dtd"><svg xmlns="http://www.w3.org/2000/svg"><symbol id="books" viewBox="0 0 36 32"><path fill="#444" d="M7 4H1c-.55 0-1 .45-1 1v22c0 .55.45 1 1 1h6c.55 0 1-.45 1-1V5c0-.55-.45-1-1-1zm-1 6H2V8h4v2zM17 4h-6c-.55 0-1 .45-1 1v22c0 .55.45 1 1 1h6c.55 0 1-.45 1-1V5c0-.55-.45-1-1-1zm-1 6h-4V8h4v2z"/><path fill="#444" d="M23.91 5.546l-5.36 2.7c-.49.247-.69.852-.442 1.343l9 17.86c.246.49.85.69 1.342.443l5.358-2.7c.49-.247.69-.852.443-1.343L25.253 5.99c-.247-.492-.852-.692-1.343-.444z"/><path fill="#444" d="M29 27c0 .552-.448 1-1 1s-1-.448-1-1 .448-1 1-1 1 .448 1 1z"/></symbol><symbol id="clock" viewBox="0 0 32 32"><path fill="#444" d="M20.586 23.414L14 16.828V8h4v7.172l5.414 5.414zM16 0C7.163 0 0 7.163 0 16s7.163 16 16 16 16-7.163 16-16S24.837 0 16 0zm0 28C9.373 28 4 22.627 4 16S9.373 4 16 4s12 5.373 12 12-5.373 12-12 12z"/></symbol><symbol id="facebook" viewBox="0 0 32 32"><path fill="#444" d="M26.667 0H5.333C2.388 0 0 2.388 0 5.334v21.332C0 29.612 2.387 32 5.333 32H16V18h-4v-4h4v-3c0-2.76 2.24-5 5-5h5v4h-5c-.552 0-1 .448-1 1v3h5.5l-1 4H20v14h6.667C29.612 32 32 29.612 32 26.666V5.334C32 2.388 29.613 0 26.667 0z"/></symbol><symbol id="github" viewBox="0 0 32 32"><path fill="#444" d="M16 .395c-8.836 0-16 7.163-16 16 0 7.07 4.585 13.067 10.942 15.182.8.148 1.094-.347 1.094-.77 0-.38-.015-1.642-.022-2.98-4.452.97-5.39-1.887-5.39-1.887-.73-1.85-1.777-2.34-1.777-2.34-1.452-.994.11-.974.11-.974 1.606.113 2.452 1.65 2.452 1.65 1.426 2.445 3.742 1.738 4.655 1.33.143-1.035.558-1.74 1.016-2.14-3.553-.405-7.29-1.778-7.29-7.908 0-1.747.626-3.174 1.65-4.295-.166-.403-.714-2.03.155-4.234 0 0 1.344-.43 4.4 1.64 1.277-.356 2.646-.533 4.006-.54 1.36.006 2.73.184 4.01.54 3.053-2.07 4.394-1.64 4.394-1.64.87 2.203.323 3.83.157 4.233 1.027 1.12 1.648 2.548 1.648 4.295 0 6.145-3.743 7.498-7.306 7.895.574.497 1.085 1.47 1.085 2.963 0 2.14-.02 3.864-.02 4.39 0 .427.29.926 1.1.77C27.42 29.455 32 23.46 32 16.395c0-8.838-7.164-16-16-16z"/></symbol><symbol id="google-plus" viewBox="0 0 32 32"><path fill="#444" d="M.025 27.177c-.008-.08-.014-.158-.018-.238.004.08.01.158.018.237zm7.347-9.516c2.875.087 4.804-2.896 4.308-6.66S8.45 4.21 5.574 4.125C2.698 4.04.77 6.922 1.266 10.688c.496 3.765 3.23 6.887 6.106 6.973zM32 8V5.334C32 2.4 29.6 0 26.667 0H5.334C2.45 0 .084 2.32.004 5.185 1.828 3.58 4.358 2.238 6.97 2.238h11.163L15.635 4.35h-3.54c2.348.9 3.6 3.63 3.6 6.43 0 2.35-1.308 4.374-3.154 5.812-1.8 1.403-2.142 1.99-2.142 3.184 0 1.018 1.93 2.75 2.938 3.462 2.95 2.08 3.904 4.01 3.904 7.233 0 .514-.064 1.027-.19 1.53h9.617C29.6 32 32 29.604 32 26.668V10h-6v6h-2v-6h-6V8h6V2h2v6h6zM5.81 23.936c.674 0 1.293-.018 1.935-.018-.848-.823-1.52-1.83-1.52-3.074 0-.738.236-1.448.567-2.08-.337.025-.68.032-1.035.032-2.324 0-4.297-.752-5.756-1.995v8.406c1.67-.793 3.654-1.27 5.81-1.27zm-5.703 3.79c-.035-.17-.06-.343-.08-.52.02.177.046.35.08.52zm14.126 2.05c-.47-1.838-2.14-2.75-4.465-4.36-.846-.274-1.778-.435-2.778-.445-2.8-.03-5.41 1.093-6.882 2.763C.606 30.16 2.765 32 5.334 32h8.95c.058-.348.085-.707.085-1.076 0-.392-.05-.775-.138-1.148z"/></symbol><symbol id="hacker" viewBox="0 0 56 56"><path fill="#fff" stroke="#999" d="M1 1h54v54H1z"/><path stroke="#999" fill="none" d="M19 1h18v54H19z"/><path stroke="#999" fill="none" d="M1 19h54v18H1z"/><circle cx="28" cy="10" r="7"/><circle cx="46" cy="28" r="7"/><circle cx="46" cy="46" r="7"/><circle cx="28" cy="46" r="7"/><circle cx="10" cy="46" r="7"/></symbol><symbol id="tags" viewBox="0 0 40 32"><path fill="#444" d="M38.5 0h-12c-.825 0-1.977.477-2.56 1.06L9.06 15.94c-.583.583-.583 1.538 0 2.12l12.88 12.88c.582.583 1.537.583 2.12 0l14.88-14.88C39.52 15.48 40 14.326 40 13.5v-12c0-.825-.675-1.5-1.5-1.5zM31 12c-1.657 0-3-1.343-3-3s1.343-3 3-3 3 1.343 3 3-1.343 3-3 3z"/><path fill="#444" d="M4 17L21 0h-2.5c-.825 0-1.977.477-2.56 1.06L1.06 15.94c-.583.583-.583 1.538 0 2.12l12.88 12.88c.582.583 1.537.583 2.12 0L17 30 4 17z"/></symbol><symbol id="twitter" viewBox="0 0 32 32"><path fill="#444" d="M32 6.076c-1.177.522-2.443.875-3.77 1.034 1.354-.813 2.395-2.1 2.886-3.632-1.27.752-2.674 1.3-4.17 1.593C25.75 3.796 24.044 3 22.157 3c-3.627 0-6.566 2.94-6.566 6.565 0 .515.058 1.016.17 1.496-5.456-.275-10.294-2.89-13.532-6.86-.565.97-.89 2.096-.89 3.3 0 2.278 1.16 4.287 2.922 5.465-1.076-.034-2.088-.33-2.974-.82v.082c0 3.18 2.262 5.834 5.265 6.437-.55.15-1.13.23-1.73.23-.422 0-.833-.04-1.234-.118.835 2.608 3.26 4.506 6.133 4.56-2.248 1.76-5.08 2.81-8.155 2.81-.53 0-1.052-.032-1.566-.093 2.904 1.863 6.355 2.95 10.063 2.95 12.076 0 18.68-10.004 18.68-18.68 0-.285-.007-.568-.02-.85C30.006 8.55 31.12 7.394 32 6.077z"/></symbol><symbol id="user" viewBox="0 0 32 32"><path fill="#444" d="M18 22.082v-1.65c2.203-1.24 4-4.336 4-7.43 0-4.972 0-9-6-9s-6 4.028-6 9c0 3.095 1.797 6.19 4 7.43v1.65C7.216 22.637 2 25.97 2 30h28c0-4.03-5.216-7.364-12-7.918z"/></symbol></svg>